<svg width="18" height="18" viewBox="0 0 18 18" fill="none" xmlns="http://www.w3.org/2000/svg">
<path d="M9.00083 6.49984C7.61967 6.49984 6.50081 7.61909 6.50081 8.99984C6.50081 10.3809 7.62008 11.4998 9.00083 11.4998C10.3819 11.4998 11.5008 10.3806 11.5008 8.99984C11.5008 7.61875 10.3816 6.49984 9.00083 6.49984ZM9.00083 4.83317C11.3012 4.83317 13.1675 6.69742 13.1675 8.99984C13.1675 11.3003 11.3032 13.1665 9.00083 13.1665C6.70042 13.1665 4.83415 11.3023 4.83415 8.99984C4.83415 6.69944 6.6984 4.83317 9.00083 4.83317ZM14.4175 4.62413C14.4175 5.19922 13.9502 5.66581 13.3758 5.66581C12.8007 5.66581 12.3342 5.1985 12.3342 4.62413C12.3342 4.04975 12.8014 3.58317 13.3758 3.58317C13.9494 3.58245 14.4175 4.04975 14.4175 4.62413ZM9.00083 2.33317C6.93875 2.33317 6.60265 2.33863 5.64356 2.38134C4.99012 2.41201 4.55211 2.4999 4.14513 2.6579C3.78346 2.79816 3.52257 2.96565 3.2446 3.24363C2.96556 3.52267 2.79836 3.78286 2.65866 4.1447C2.5003 4.5526 2.41244 4.98993 2.38231 5.64246C2.33919 6.5625 2.33415 6.88404 2.33415 8.99984C2.33415 11.0619 2.33961 11.398 2.38231 12.357C2.413 13.0102 2.501 13.4488 2.65861 13.8548C2.79925 14.217 2.96708 14.4785 3.24371 14.7552C3.52386 15.0349 3.78482 15.2027 4.14322 15.341C4.55516 15.5003 4.9929 15.5883 5.64343 15.6183C6.56348 15.6614 6.88502 15.6665 9.00083 15.6665C11.0629 15.6665 11.399 15.661 12.358 15.6183C13.0097 15.5878 13.4487 15.4995 13.8558 15.342C14.217 15.2018 14.4793 15.0333 14.7562 14.7569C15.0363 14.4763 15.2037 14.216 15.3422 13.8568C15.5011 13.4463 15.5892 13.008 15.6193 12.3573C15.6624 11.4372 15.6675 11.1156 15.6675 8.99984C15.6675 6.93777 15.662 6.60168 15.6193 5.64264C15.5887 4.99072 15.5004 4.55108 15.3427 4.14415C15.2028 3.78349 15.0347 3.5218 14.757 3.24363C14.4775 2.96413 14.218 2.79728 13.8559 2.65769C13.4483 2.49945 13.0103 2.41147 12.3582 2.38135C11.4382 2.33821 11.1166 2.33317 9.00083 2.33317ZM9.00083 0.666504C11.2647 0.666504 11.5473 0.674837 12.4362 0.716504C13.323 0.757479 13.9279 0.897754 14.4592 1.104C15.0084 1.31581 15.4723 1.60192 15.9355 2.06511C16.398 2.52831 16.6842 2.99359 16.8967 3.5415C17.1022 4.07206 17.2425 4.67761 17.2842 5.56442C17.3237 6.45331 17.3342 6.73594 17.3342 8.99984C17.3342 11.2638 17.3258 11.5463 17.2842 12.4353C17.2432 13.3221 17.1022 13.9269 16.8967 14.4582C16.6848 15.0075 16.398 15.4713 15.9355 15.9346C15.4723 16.3971 15.0063 16.6832 14.4592 16.8957C13.9279 17.1013 13.323 17.2415 12.4362 17.2832C11.5473 17.3228 11.2647 17.3332 9.00083 17.3332C6.73692 17.3332 6.45428 17.3248 5.5654 17.2832C4.67859 17.2422 4.07442 17.1013 3.54248 16.8957C2.99386 16.6838 2.52928 16.3971 2.06609 15.9346C1.6029 15.4713 1.31748 15.0054 1.10498 14.4582C0.898731 13.9269 0.759147 13.3221 0.717481 12.4353C0.677897 11.5463 0.66748 11.2638 0.66748 8.99984C0.66748 6.73594 0.675814 6.45331 0.717481 5.56442C0.758447 4.67692 0.898731 4.07275 1.10498 3.5415C1.31678 2.99289 1.6029 2.52831 2.06609 2.06511C2.52928 1.60192 2.99456 1.3165 3.54248 1.104C4.07373 0.897754 4.6779 0.758171 5.5654 0.716504C6.45428 0.676921 6.73692 0.666504 9.00083 0.666504Z" fill="#25292A"/>
</svg>
