<svg width="72" height="40" viewBox="0 0 72 40" fill="none" xmlns="http://www.w3.org/2000/svg">
<rect x="0.5" y="0.5" width="71" height="39" rx="3.5" stroke="#CBCECF"/>
<path d="M13.3496 15.36H14.3576V23.088H19.1096V24H13.3496V15.36ZM26.4008 17.808V24H25.5128L25.4528 22.824C25.1168 23.592 24.3728 24.168 23.1008 24.168C21.3008 24.168 19.9928 23.028 19.9928 20.916C19.9928 18.816 21.2768 17.64 23.0528 17.64C24.1928 17.64 25.0328 18.12 25.4528 19.02L25.5128 17.808H26.4008ZM23.2088 23.256C24.6128 23.256 25.4408 22.38 25.4408 20.904C25.4408 19.428 24.6128 18.552 23.2088 18.552C21.8048 18.552 21.0008 19.428 21.0008 20.904C21.0008 22.38 21.8048 23.256 23.2088 23.256ZM28.629 16.536C28.221 16.536 27.957 16.272 27.957 15.864C27.957 15.456 28.221 15.192 28.629 15.192C29.037 15.192 29.301 15.456 29.301 15.864C29.301 16.272 29.037 16.536 28.629 16.536ZM28.149 17.808H29.109V24H28.149V17.808ZM30.9536 17.808H31.8416L31.9136 19.02C32.2496 18.168 32.9336 17.64 34.0496 17.64C35.4536 17.64 36.4736 18.48 36.4736 20.232V24H35.5136V20.292C35.5136 18.984 34.7936 18.564 33.8456 18.564C32.6096 18.564 31.9136 19.272 31.9136 20.64V24H30.9536V17.808ZM38.1544 17.808H39.0424L39.1144 19.02C39.4504 18.168 40.1344 17.64 41.2504 17.64C42.6544 17.64 43.6744 18.48 43.6744 20.232V24H42.7144V20.292C42.7144 18.984 41.9944 18.564 41.0464 18.564C39.8104 18.564 39.1144 19.272 39.1144 20.64V24H38.1544V17.808ZM45.9311 25.164C46.4591 26.184 47.3351 26.376 47.9951 26.376C49.1831 26.376 49.9871 25.764 49.9871 24.264V22.908C49.6511 23.688 48.9671 24.168 47.8271 24.168C46.3391 24.168 45.3071 23.328 45.3071 21.576V17.808H46.2671V21.528C46.2671 22.824 47.0111 23.244 48.0071 23.244C49.3151 23.244 49.9871 22.536 49.9871 21.372V17.808H50.9471V24.348C50.9471 26.328 49.8071 27.288 47.9831 27.288C46.5191 27.288 45.5711 26.664 45.1151 25.656L45.9311 25.164ZM58.8422 17.808V24H57.9542L57.8942 22.824C57.5582 23.592 56.8142 24.168 55.5422 24.168C53.7422 24.168 52.4342 23.028 52.4342 20.916C52.4342 18.816 53.7182 17.64 55.4942 17.64C56.6342 17.64 57.4742 18.12 57.8942 19.02L57.9542 17.808H58.8422ZM55.6502 23.256C57.0542 23.256 57.8822 22.38 57.8822 20.904C57.8822 19.428 57.0542 18.552 55.6502 18.552C54.2462 18.552 53.4422 19.428 53.4422 20.904C53.4422 22.38 54.2462 23.256 55.6502 23.256Z" fill="#1E2223"/>
<path d="M12.3176 25.5H59.6822V26.1H12.3176V25.5Z" fill="#1E2223"/>
</svg>
